<svg width="698" height="384" viewBox="0 0 698 384" fill="none" xmlns="http://www.w3.org/2000/svg">
<path d="M42.9079 15.4242C47.1646 15.4242 50.6153 11.9735 50.6153 7.71687C50.6153 3.4602 47.1646 0.00949097 42.9079 0.00949097C38.6513 0.00949097 35.2006 3.4602 35.2006 7.71687C35.2006 11.9735 38.6513 15.4242 42.9079 15.4242Z" fill="#E6E6E6"/>
<path d="M81.9226 15.4242C86.1793 15.4242 89.63 11.9735 89.63 7.71687C89.63 3.4602 86.1793 0.00949097 81.9226 0.00949097C77.6659 0.00949097 74.2152 3.4602 74.2152 7.71687C74.2152 11.9735 77.6659 15.4242 81.9226 15.4242Z" fill="#E6E6E6"/>
<path d="M120.937 15.4242C125.194 15.4242 128.645 11.9735 128.645 7.71687C128.645 3.4602 125.194 0.00949097 120.937 0.00949097C116.681 0.00949097 113.23 3.4602 113.23 7.71687C113.23 11.9735 116.681 15.4242 120.937 15.4242Z" fill="#E6E6E6"/>
<path d="M159.952 15.4242C164.209 15.4242 167.659 11.9735 167.659 7.71687C167.659 3.4602 164.209 0.00949097 159.952 0.00949097C155.695 0.00949097 152.245 3.4602 152.245 7.71687C152.245 11.9735 155.695 15.4242 159.952 15.4242Z" fill="#0D47A1"/>
<path d="M198.967 15.4242C203.223 15.4242 206.674 11.9735 206.674 7.71687C206.674 3.4602 203.223 0.00949097 198.967 0.00949097C194.71 0.00949097 191.259 3.4602 191.259 7.71687C191.259 11.9735 194.71 15.4242 198.967 15.4242Z" fill="#E6E6E6"/>
<path d="M237.981 15.4242C242.238 15.4242 245.689 11.9735 245.689 7.71687C245.689 3.4602 242.238 0.00949097 237.981 0.00949097C233.724 0.00949097 230.274 3.4602 230.274 7.71687C230.274 11.9735 233.724 15.4242 237.981 15.4242Z" fill="#E6E6E6"/>
<path d="M276.996 15.4242C281.252 15.4242 284.703 11.9735 284.703 7.71687C284.703 3.4602 281.252 0.00949097 276.996 0.00949097C272.739 0.00949097 269.288 3.4602 269.288 7.71687C269.288 11.9735 272.739 15.4242 276.996 15.4242Z" fill="#E6E6E6"/>
<path d="M316.01 15.4242C320.267 15.4242 323.718 11.9735 323.718 7.71687C323.718 3.4602 320.267 0.00949097 316.01 0.00949097C311.754 0.00949097 308.303 3.4602 308.303 7.71687C308.303 11.9735 311.754 15.4242 316.01 15.4242Z" fill="#E6E6E6"/>
<path d="M355.025 15.4242C359.282 15.4242 362.732 11.9735 362.732 7.71687C362.732 3.4602 359.282 0.00949097 355.025 0.00949097C350.768 0.00949097 347.318 3.4602 347.318 7.71687C347.318 11.9735 350.768 15.4242 355.025 15.4242Z" fill="#E6E6E6"/>
<path d="M394.04 15.4242C398.296 15.4242 401.747 11.9735 401.747 7.71687C401.747 3.4602 398.296 0.00949097 394.04 0.00949097C389.783 0.00949097 386.332 3.4602 386.332 7.71687C386.332 11.9735 389.783 15.4242 394.04 15.4242Z" fill="#E6E6E6"/>
<path d="M42.9079 54.9286C47.1646 54.9286 50.6153 51.4779 50.6153 47.2212C50.6153 42.9646 47.1646 39.5139 42.9079 39.5139C38.6513 39.5139 35.2006 42.9646 35.2006 47.2212C35.2006 51.4779 38.6513 54.9286 42.9079 54.9286Z" fill="#E6E6E6"/>
<path d="M81.9226 54.9286C86.1793 54.9286 89.63 51.4779 89.63 47.2212C89.63 42.9646 86.1793 39.5139 81.9226 39.5139C77.6659 39.5139 74.2152 42.9646 74.2152 47.2212C74.2152 51.4779 77.6659 54.9286 81.9226 54.9286Z" fill="#E6E6E6"/>
<path d="M120.937 54.9286C125.194 54.9286 128.645 51.4779 128.645 47.2212C128.645 42.9646 125.194 39.5139 120.937 39.5139C116.681 39.5139 113.23 42.9646 113.23 47.2212C113.23 51.4779 116.681 54.9286 120.937 54.9286Z" fill="#E6E6E6"/>
<path d="M159.952 54.9286C164.209 54.9286 167.659 51.4779 167.659 47.2212C167.659 42.9646 164.209 39.5139 159.952 39.5139C155.695 39.5139 152.245 42.9646 152.245 47.2212C152.245 51.4779 155.695 54.9286 159.952 54.9286Z" fill="#E6E6E6"/>
<path d="M198.967 54.9286C203.223 54.9286 206.674 51.4779 206.674 47.2212C206.674 42.9646 203.223 39.5139 198.967 39.5139C194.71 39.5139 191.259 42.9646 191.259 47.2212C191.259 51.4779 194.71 54.9286 198.967 54.9286Z" fill="#E6E6E6"/>
<path d="M237.981 54.9286C242.238 54.9286 245.689 51.4779 245.689 47.2212C245.689 42.9646 242.238 39.5139 237.981 39.5139C233.724 39.5139 230.274 42.9646 230.274 47.2212C230.274 51.4779 233.724 54.9286 237.981 54.9286Z" fill="#E6E6E6"/>
<path d="M276.996 54.9286C281.252 54.9286 284.703 51.4779 284.703 47.2212C284.703 42.9646 281.252 39.5139 276.996 39.5139C272.739 39.5139 269.288 42.9646 269.288 47.2212C269.288 51.4779 272.739 54.9286 276.996 54.9286Z" fill="#E6E6E6"/>
<path d="M316.01 54.9286C320.267 54.9286 323.718 51.4779 323.718 47.2212C323.718 42.9646 320.267 39.5139 316.01 39.5139C311.754 39.5139 308.303 42.9646 308.303 47.2212C308.303 51.4779 311.754 54.9286 316.01 54.9286Z" fill="#E6E6E6"/>
<path d="M355.025 54.9286C359.282 54.9286 362.732 51.4779 362.732 47.2212C362.732 42.9646 359.282 39.5139 355.025 39.5139C350.768 39.5139 347.318 42.9646 347.318 47.2212C347.318 51.4779 350.768 54.9286 355.025 54.9286Z" fill="#E6E6E6"/>
<path d="M394.04 54.9286C398.296 54.9286 401.747 51.4779 401.747 47.2212C401.747 42.9646 398.296 39.5139 394.04 39.5139C389.783 39.5139 386.332 42.9646 386.332 47.2212C386.332 51.4779 389.783 54.9286 394.04 54.9286Z" fill="#E6E6E6"/>
<path d="M42.9079 94.433C47.1646 94.433 50.6153 90.9822 50.6153 86.7256C50.6153 82.4689 47.1646 79.0182 42.9079 79.0182C38.6513 79.0182 35.2006 82.4689 35.2006 86.7256C35.2006 90.9822 38.6513 94.433 42.9079 94.433Z" fill="#E6E6E6"/>
<path d="M81.9226 94.433C86.1793 94.433 89.63 90.9822 89.63 86.7256C89.63 82.4689 86.1793 79.0182 81.9226 79.0182C77.6659 79.0182 74.2152 82.4689 74.2152 86.7256C74.2152 90.9822 77.6659 94.433 81.9226 94.433Z" fill="#0D47A1"/>
<path d="M120.937 94.433C125.194 94.433 128.645 90.9822 128.645 86.7256C128.645 82.4689 125.194 79.0182 120.937 79.0182C116.681 79.0182 113.23 82.4689 113.23 86.7256C113.23 90.9822 116.681 94.433 120.937 94.433Z" fill="#E6E6E6"/>
<path d="M159.952 94.433C164.209 94.433 167.659 90.9822 167.659 86.7256C167.659 82.4689 164.209 79.0182 159.952 79.0182C155.695 79.0182 152.245 82.4689 152.245 86.7256C152.245 90.9822 155.695 94.433 159.952 94.433Z" fill="#E6E6E6"/>
<path d="M198.967 94.433C203.223 94.433 206.674 90.9822 206.674 86.7256C206.674 82.4689 203.223 79.0182 198.967 79.0182C194.71 79.0182 191.259 82.4689 191.259 86.7256C191.259 90.9822 194.71 94.433 198.967 94.433Z" fill="#E6E6E6"/>
<path d="M237.981 94.433C242.238 94.433 245.689 90.9822 245.689 86.7256C245.689 82.4689 242.238 79.0182 237.981 79.0182C233.724 79.0182 230.274 82.4689 230.274 86.7256C230.274 90.9822 233.724 94.433 237.981 94.433Z" fill="#E6E6E6"/>
<path d="M276.996 94.433C281.252 94.433 284.703 90.9822 284.703 86.7256C284.703 82.4689 281.252 79.0182 276.996 79.0182C272.739 79.0182 269.288 82.4689 269.288 86.7256C269.288 90.9822 272.739 94.433 276.996 94.433Z" fill="#E6E6E6"/>
<path d="M316.01 94.433C320.267 94.433 323.718 90.9822 323.718 86.7256C323.718 82.4689 320.267 79.0182 316.01 79.0182C311.754 79.0182 308.303 82.4689 308.303 86.7256C308.303 90.9822 311.754 94.433 316.01 94.433Z" fill="#E6E6E6"/>
<path d="M355.025 94.433C359.282 94.433 362.732 90.9822 362.732 86.7256C362.732 82.4689 359.282 79.0182 355.025 79.0182C350.768 79.0182 347.318 82.4689 347.318 86.7256C347.318 90.9822 350.768 94.433 355.025 94.433Z" fill="#E6E6E6"/>
<path d="M394.04 94.433C398.296 94.433 401.747 90.9822 401.747 86.7256C401.747 82.4689 398.296 79.0182 394.04 79.0182C389.783 79.0182 386.332 82.4689 386.332 86.7256C386.332 90.9822 389.783 94.433 394.04 94.433Z" fill="#E6E6E6"/>
<path d="M42.9079 133.937C47.1646 133.937 50.6153 130.487 50.6153 126.23C50.6153 121.973 47.1646 118.523 42.9079 118.523C38.6513 118.523 35.2006 121.973 35.2006 126.23C35.2006 130.487 38.6513 133.937 42.9079 133.937Z" fill="#E6E6E6"/>
<path d="M81.9226 133.937C86.1793 133.937 89.63 130.487 89.63 126.23C89.63 121.973 86.1793 118.523 81.9226 118.523C77.6659 118.523 74.2152 121.973 74.2152 126.23C74.2152 130.487 77.6659 133.937 81.9226 133.937Z" fill="#E6E6E6"/>
<path d="M120.937 133.937C125.194 133.937 128.645 130.487 128.645 126.23C128.645 121.973 125.194 118.523 120.937 118.523C116.681 118.523 113.23 121.973 113.23 126.23C113.23 130.487 116.681 133.937 120.937 133.937Z" fill="#E6E6E6"/>
<path d="M159.952 133.937C164.209 133.937 167.659 130.487 167.659 126.23C167.659 121.973 164.209 118.523 159.952 118.523C155.695 118.523 152.245 121.973 152.245 126.23C152.245 130.487 155.695 133.937 159.952 133.937Z" fill="#E6E6E6"/>
<path d="M198.967 133.937C203.223 133.937 206.674 130.487 206.674 126.23C206.674 121.973 203.223 118.523 198.967 118.523C194.71 118.523 191.259 121.973 191.259 126.23C191.259 130.487 194.71 133.937 198.967 133.937Z" fill="#E6E6E6"/>
<path d="M237.981 133.937C242.238 133.937 245.689 130.487 245.689 126.23C245.689 121.973 242.238 118.523 237.981 118.523C233.724 118.523 230.274 121.973 230.274 126.23C230.274 130.487 233.724 133.937 237.981 133.937Z" fill="#E6E6E6"/>
<path d="M276.996 133.937C281.252 133.937 284.703 130.487 284.703 126.23C284.703 121.973 281.252 118.523 276.996 118.523C272.739 118.523 269.288 121.973 269.288 126.23C269.288 130.487 272.739 133.937 276.996 133.937Z" fill="#E6E6E6"/>
<path d="M316.01 133.937C320.267 133.937 323.718 130.487 323.718 126.23C323.718 121.973 320.267 118.523 316.01 118.523C311.754 118.523 308.303 121.973 308.303 126.23C308.303 130.487 311.754 133.937 316.01 133.937Z" fill="#E6E6E6"/>
<path d="M355.025 133.937C359.282 133.937 362.732 130.487 362.732 126.23C362.732 121.973 359.282 118.523 355.025 118.523C350.768 118.523 347.318 121.973 347.318 126.23C347.318 130.487 350.768 133.937 355.025 133.937Z" fill="#E6E6E6"/>
<path d="M394.04 133.937C398.296 133.937 401.747 130.487 401.747 126.23C401.747 121.973 398.296 118.523 394.04 118.523C389.783 118.523 386.332 121.973 386.332 126.23C386.332 130.487 389.783 133.937 394.04 133.937Z" fill="#E6E6E6"/>
<path d="M42.9079 173.442C47.1646 173.442 50.6153 169.991 50.6153 165.734C50.6153 161.478 47.1646 158.027 42.9079 158.027C38.6513 158.027 35.2006 161.478 35.2006 165.734C35.2006 169.991 38.6513 173.442 42.9079 173.442Z" fill="#E6E6E6"/>
<path d="M81.9226 173.442C86.1793 173.442 89.63 169.991 89.63 165.734C89.63 161.478 86.1793 158.027 81.9226 158.027C77.6659 158.027 74.2152 161.478 74.2152 165.734C74.2152 169.991 77.6659 173.442 81.9226 173.442Z" fill="#E6E6E6"/>
<path d="M120.937 173.442C125.194 173.442 128.645 169.991 128.645 165.734C128.645 161.478 125.194 158.027 120.937 158.027C116.681 158.027 113.23 161.478 113.23 165.734C113.23 169.991 116.681 173.442 120.937 173.442Z" fill="#0D47A1"/>
<path d="M159.952 173.442C164.209 173.442 167.659 169.991 167.659 165.734C167.659 161.478 164.209 158.027 159.952 158.027C155.695 158.027 152.245 161.478 152.245 165.734C152.245 169.991 155.695 173.442 159.952 173.442Z" fill="#E6E6E6"/>
<path d="M198.967 173.442C203.223 173.442 206.674 169.991 206.674 165.734C206.674 161.478 203.223 158.027 198.967 158.027C194.71 158.027 191.259 161.478 191.259 165.734C191.259 169.991 194.71 173.442 198.967 173.442Z" fill="#E6E6E6"/>
<path d="M237.981 173.442C242.238 173.442 245.689 169.991 245.689 165.734C245.689 161.478 242.238 158.027 237.981 158.027C233.724 158.027 230.274 161.478 230.274 165.734C230.274 169.991 233.724 173.442 237.981 173.442Z" fill="#E6E6E6"/>
<path d="M276.996 173.442C281.252 173.442 284.703 169.991 284.703 165.734C284.703 161.478 281.252 158.027 276.996 158.027C272.739 158.027 269.288 161.478 269.288 165.734C269.288 169.991 272.739 173.442 276.996 173.442Z" fill="#E6E6E6"/>
<path d="M316.01 173.442C320.267 173.442 323.718 169.991 323.718 165.734C323.718 161.478 320.267 158.027 316.01 158.027C311.754 158.027 308.303 161.478 308.303 165.734C308.303 169.991 311.754 173.442 316.01 173.442Z" fill="#E6E6E6"/>
<path d="M355.025 173.442C359.282 173.442 362.732 169.991 362.732 165.734C362.732 161.478 359.282 158.027 355.025 158.027C350.768 158.027 347.318 161.478 347.318 165.734C347.318 169.991 350.768 173.442 355.025 173.442Z" fill="#E6E6E6"/>
<path d="M394.04 173.442C398.296 173.442 401.747 169.991 401.747 165.734C401.747 161.478 398.296 158.027 394.04 158.027C389.783 158.027 386.332 161.478 386.332 165.734C386.332 169.991 389.783 173.442 394.04 173.442Z" fill="#E6E6E6"/>
<path d="M42.9079 212.946C47.1646 212.946 50.6153 209.495 50.6153 205.239C50.6153 200.982 47.1646 197.531 42.9079 197.531C38.6513 197.531 35.2006 200.982 35.2006 205.239C35.2006 209.495 38.6513 212.946 42.9079 212.946Z" fill="#E6E6E6"/>
<path d="M81.9226 212.946C86.1793 212.946 89.63 209.495 89.63 205.239C89.63 200.982 86.1793 197.531 81.9226 197.531C77.6659 197.531 74.2152 200.982 74.2152 205.239C74.2152 209.495 77.6659 212.946 81.9226 212.946Z" fill="#E6E6E6"/>
<path d="M120.937 212.946C125.194 212.946 128.645 209.495 128.645 205.239C128.645 200.982 125.194 197.531 120.937 197.531C116.681 197.531 113.23 200.982 113.23 205.239C113.23 209.495 116.681 212.946 120.937 212.946Z" fill="#E6E6E6"/>
<path d="M159.952 212.946C164.209 212.946 167.659 209.495 167.659 205.239C167.659 200.982 164.209 197.531 159.952 197.531C155.695 197.531 152.245 200.982 152.245 205.239C152.245 209.495 155.695 212.946 159.952 212.946Z" fill="#E6E6E6"/>
<path d="M198.967 212.946C203.223 212.946 206.674 209.495 206.674 205.239C206.674 200.982 203.223 197.531 198.967 197.531C194.71 197.531 191.259 200.982 191.259 205.239C191.259 209.495 194.71 212.946 198.967 212.946Z" fill="#E6E6E6"/>
<path d="M237.981 212.946C242.238 212.946 245.689 209.495 245.689 205.239C245.689 200.982 242.238 197.531 237.981 197.531C233.724 197.531 230.274 200.982 230.274 205.239C230.274 209.495 233.724 212.946 237.981 212.946Z" fill="#E6E6E6"/>
<path d="M276.996 212.946C281.252 212.946 284.703 209.495 284.703 205.239C284.703 200.982 281.252 197.531 276.996 197.531C272.739 197.531 269.288 200.982 269.288 205.239C269.288 209.495 272.739 212.946 276.996 212.946Z" fill="#E6E6E6"/>
<path d="M316.01 212.946C320.267 212.946 323.718 209.495 323.718 205.239C323.718 200.982 320.267 197.531 316.01 197.531C311.754 197.531 308.303 200.982 308.303 205.239C308.303 209.495 311.754 212.946 316.01 212.946Z" fill="#E6E6E6"/>
<path d="M355.025 212.946C359.282 212.946 362.732 209.495 362.732 205.239C362.732 200.982 359.282 197.531 355.025 197.531C350.768 197.531 347.318 200.982 347.318 205.239C347.318 209.495 350.768 212.946 355.025 212.946Z" fill="#E6E6E6"/>
<path d="M394.04 212.946C398.296 212.946 401.747 209.495 401.747 205.239C401.747 200.982 398.296 197.531 394.04 197.531C389.783 197.531 386.332 200.982 386.332 205.239C386.332 209.495 389.783 212.946 394.04 212.946Z" fill="#E6E6E6"/>
<path d="M42.9079 252.45C47.1646 252.45 50.6153 249 50.6153 244.743C50.6153 240.486 47.1646 237.036 42.9079 237.036C38.6513 237.036 35.2006 240.486 35.2006 244.743C35.2006 249 38.6513 252.45 42.9079 252.45Z" fill="#E6E6E6"/>
<path d="M81.9226 252.45C86.1793 252.45 89.63 249 89.63 244.743C89.63 240.486 86.1793 237.036 81.9226 237.036C77.6659 237.036 74.2152 240.486 74.2152 244.743C74.2152 249 77.6659 252.45 81.9226 252.45Z" fill="#E6E6E6"/>
<path d="M120.937 252.45C125.194 252.45 128.645 249 128.645 244.743C128.645 240.486 125.194 237.036 120.937 237.036C116.681 237.036 113.23 240.486 113.23 244.743C113.23 249 116.681 252.45 120.937 252.45Z" fill="#E6E6E6"/>
<path d="M159.952 252.45C164.209 252.45 167.659 249 167.659 244.743C167.659 240.486 164.209 237.036 159.952 237.036C155.695 237.036 152.245 240.486 152.245 244.743C152.245 249 155.695 252.45 159.952 252.45Z" fill="#E6E6E6"/>
<path d="M198.967 252.45C203.223 252.45 206.674 249 206.674 244.743C206.674 240.486 203.223 237.036 198.967 237.036C194.71 237.036 191.259 240.486 191.259 244.743C191.259 249 194.71 252.45 198.967 252.45Z" fill="#E6E6E6"/>
<path d="M237.981 252.45C242.238 252.45 245.689 249 245.689 244.743C245.689 240.486 242.238 237.036 237.981 237.036C233.724 237.036 230.274 240.486 230.274 244.743C230.274 249 233.724 252.45 237.981 252.45Z" fill="#E6E6E6"/>
<path d="M276.996 252.45C281.252 252.45 284.703 249 284.703 244.743C284.703 240.486 281.252 237.036 276.996 237.036C272.739 237.036 269.288 240.486 269.288 244.743C269.288 249 272.739 252.45 276.996 252.45Z" fill="#E6E6E6"/>
<path d="M316.01 252.45C320.267 252.45 323.718 249 323.718 244.743C323.718 240.486 320.267 237.036 316.01 237.036C311.754 237.036 308.303 240.486 308.303 244.743C308.303 249 311.754 252.45 316.01 252.45Z" fill="#E6E6E6"/>
<path d="M355.025 252.45C359.282 252.45 362.732 249 362.732 244.743C362.732 240.486 359.282 237.036 355.025 237.036C350.768 237.036 347.318 240.486 347.318 244.743C347.318 249 350.768 252.45 355.025 252.45Z" fill="#E6E6E6"/>
<path d="M394.04 252.45C398.296 252.45 401.747 249 401.747 244.743C401.747 240.486 398.296 237.036 394.04 237.036C389.783 237.036 386.332 240.486 386.332 244.743C386.332 249 389.783 252.45 394.04 252.45Z" fill="#E6E6E6"/>
<path d="M42.9079 291.955C47.1646 291.955 50.6153 288.504 50.6153 284.247C50.6153 279.991 47.1646 276.54 42.9079 276.54C38.6513 276.54 35.2006 279.991 35.2006 284.247C35.2006 288.504 38.6513 291.955 42.9079 291.955Z" fill="#E6E6E6"/>
<path d="M81.9226 291.955C86.1793 291.955 89.63 288.504 89.63 284.247C89.63 279.991 86.1793 276.54 81.9226 276.54C77.6659 276.54 74.2152 279.991 74.2152 284.247C74.2152 288.504 77.6659 291.955 81.9226 291.955Z" fill="#E6E6E6"/>
<path d="M120.937 291.955C125.194 291.955 128.645 288.504 128.645 284.247C128.645 279.991 125.194 276.54 120.937 276.54C116.681 276.54 113.23 279.991 113.23 284.247C113.23 288.504 116.681 291.955 120.937 291.955Z" fill="#E6E6E6"/>
<path d="M159.952 291.955C164.209 291.955 167.659 288.504 167.659 284.247C167.659 279.991 164.209 276.54 159.952 276.54C155.695 276.54 152.245 279.991 152.245 284.247C152.245 288.504 155.695 291.955 159.952 291.955Z" fill="#E6E6E6"/>
<path d="M198.967 291.955C203.223 291.955 206.674 288.504 206.674 284.247C206.674 279.991 203.223 276.54 198.967 276.54C194.71 276.54 191.259 279.991 191.259 284.247C191.259 288.504 194.71 291.955 198.967 291.955Z" fill="#E6E6E6"/>
<path d="M237.981 291.955C242.238 291.955 245.689 288.504 245.689 284.247C245.689 279.991 242.238 276.54 237.981 276.54C233.724 276.54 230.274 279.991 230.274 284.247C230.274 288.504 233.724 291.955 237.981 291.955Z" fill="#E6E6E6"/>
<path d="M276.996 291.955C281.252 291.955 284.703 288.504 284.703 284.247C284.703 279.991 281.252 276.54 276.996 276.54C272.739 276.54 269.288 279.991 269.288 284.247C269.288 288.504 272.739 291.955 276.996 291.955Z" fill="#E6E6E6"/>
<path d="M316.01 291.955C320.267 291.955 323.718 288.504 323.718 284.247C323.718 279.991 320.267 276.54 316.01 276.54C311.754 276.54 308.303 279.991 308.303 284.247C308.303 288.504 311.754 291.955 316.01 291.955Z" fill="#E6E6E6"/>
<path d="M355.025 291.955C359.282 291.955 362.732 288.504 362.732 284.247C362.732 279.991 359.282 276.54 355.025 276.54C350.768 276.54 347.318 279.991 347.318 284.247C347.318 288.504 350.768 291.955 355.025 291.955Z" fill="#E6E6E6"/>
<path d="M394.04 291.955C398.296 291.955 401.747 288.504 401.747 284.247C401.747 279.991 398.296 276.54 394.04 276.54C389.783 276.54 386.332 279.991 386.332 284.247C386.332 288.504 389.783 291.955 394.04 291.955Z" fill="#E6E6E6"/>
<path d="M320.375 226.854L411.849 66.565H228.803L137.232 225.171L228.803 383.778H411.946L503.347 225.468L320.375 226.854Z" fill="#1E88E5"/>
<path d="M526.065 212.005L526.236 211.708L434.665 53.102H434.567L343.093 213.391L526.065 212.005Z" fill="#0D47A1"/>
<path d="M658.541 59.6106C657.049 57.8674 656.303 55.3152 656.303 51.9541C656.303 48.6246 657.049 46.0879 658.541 44.344C659.31 43.4691 660.266 42.7794 661.339 42.3265C662.412 41.8737 663.574 41.6694 664.737 41.729C665.911 41.6677 667.083 41.8709 668.168 42.3235C669.253 42.7761 670.222 43.4666 671.005 44.344C672.512 46.0876 673.265 48.6243 673.266 51.9541C673.266 55.3156 672.512 57.8678 671.005 59.6106C670.222 60.4881 669.253 61.1787 668.168 61.6314C667.083 62.0841 665.911 62.2873 664.737 62.2261C663.574 62.2857 662.412 62.0813 661.339 61.6284C660.266 61.1755 659.31 60.4857 658.541 59.6106ZM667.424 56.9015C668.096 55.3434 668.387 53.6472 668.272 51.9541C668.382 50.2816 668.083 48.6073 667.399 47.0769C667.146 46.5954 666.762 46.1957 666.29 45.9245C665.819 45.6534 665.28 45.522 664.737 45.5457C664.203 45.5249 663.675 45.6582 663.216 45.9298C662.756 46.2014 662.385 46.5997 662.146 47.0769C661.48 48.6122 661.189 50.284 661.297 51.9541C661.186 53.6393 661.477 55.3268 662.146 56.8777C662.385 57.3552 662.756 57.7537 663.216 58.0253C663.675 58.297 664.203 58.4303 664.737 58.4093C665.282 58.4405 665.824 58.3152 666.3 58.048C666.777 57.7808 667.166 57.383 667.424 56.9015V56.9015ZM664.408 75.7491L683.821 42.2002H689.051L669.59 75.7491H664.408ZM682.431 73.464C680.938 71.7204 680.192 69.1523 680.193 65.7598C680.193 62.4307 680.939 59.9019 682.431 58.1735C683.25 57.3521 684.223 56.7005 685.294 56.2558C686.366 55.8112 687.514 55.5823 688.674 55.5823C689.834 55.5823 690.983 55.8112 692.054 56.2558C693.125 56.7005 694.098 57.3521 694.917 58.1735C696.409 59.9015 697.155 62.446 697.156 65.807C697.156 69.1686 696.41 71.7209 694.917 73.464C694.102 74.2922 693.131 74.9499 692.059 75.3989C690.987 75.8478 689.836 76.079 688.674 76.079C687.512 76.079 686.362 75.8478 685.29 75.3989C684.218 74.9499 683.246 74.2922 682.431 73.464ZM691.312 70.731C691.981 69.18 692.272 67.4924 692.161 65.807C692.271 64.1347 691.972 62.4607 691.289 60.9303C691.026 60.4653 690.644 60.0786 690.182 59.8095C689.721 59.5404 689.196 59.3986 688.662 59.3986C688.128 59.3986 687.603 59.5404 687.141 59.8095C686.68 60.0786 686.298 60.4653 686.035 60.9303C685.369 62.4655 685.079 64.1372 685.187 65.807C685.076 67.4923 685.367 69.1798 686.035 70.731C686.301 71.1962 686.685 71.5828 687.148 71.8517C687.611 72.1206 688.138 72.2622 688.673 72.2622C689.209 72.2622 689.735 72.1206 690.199 71.8517C690.662 71.5828 691.046 71.1962 691.312 70.731V70.731Z" fill="#1E88E5"/>
<path d="M2.2383 349.008C0.746096 347.265 0 344.713 0 341.352C0 338.022 0.746096 335.485 2.2383 333.741C3.00693 332.867 3.9635 332.177 5.03642 331.724C6.10934 331.271 7.2708 331.067 8.43385 331.127C9.60774 331.065 10.7804 331.268 11.8652 331.721C12.9501 332.174 13.9194 332.864 14.7017 333.741C16.2087 335.485 16.9625 338.022 16.963 341.352C16.963 344.713 16.2093 347.265 14.7017 349.008C13.9195 349.886 12.9502 350.576 11.8653 351.029C10.7805 351.482 9.60778 351.685 8.43385 351.624C7.27076 351.683 6.10926 351.479 5.03633 351.026C3.9634 350.573 3.00684 349.883 2.2383 349.008V349.008ZM11.1208 346.299C11.7933 344.741 12.084 343.045 11.9688 341.352C12.0795 339.679 11.7799 338.005 11.0962 336.474C10.8435 335.993 10.4589 335.593 9.98749 335.322C9.51606 335.051 8.9772 334.919 8.43387 334.943C7.90053 334.922 7.37249 335.056 6.91299 335.327C6.4535 335.599 6.08202 335.997 5.84306 336.474C5.17681 338.01 4.88586 339.682 4.99426 341.352C4.88336 343.037 5.17427 344.724 5.84306 346.275C6.08179 346.753 6.45319 347.151 6.91273 347.423C7.37228 347.695 7.90044 347.828 8.43387 347.807C8.97892 347.838 9.52153 347.713 9.99763 347.446C10.4737 347.178 10.8635 346.781 11.1208 346.299V346.299ZM8.10519 365.147L27.5177 331.598H32.7478L13.2876 365.147H8.10519ZM26.1282 362.861C24.6352 361.118 23.8891 358.55 23.8899 355.157C23.8899 351.828 24.636 349.299 26.1282 347.571C26.9472 346.75 27.9203 346.098 28.9916 345.653C30.0629 345.209 31.2115 344.98 32.3714 344.98C33.5314 344.98 34.6799 345.209 35.7512 345.653C36.8225 346.098 37.7956 346.75 38.6146 347.571C40.106 349.299 40.8521 351.843 40.8529 355.205C40.8529 358.566 40.1068 361.118 38.6146 362.861C37.7995 363.69 36.8276 364.347 35.7558 364.796C34.6839 365.245 33.5335 365.477 32.3714 365.477C31.2093 365.477 30.0589 365.245 28.987 364.796C27.9152 364.347 26.9434 363.69 26.1282 362.861V362.861ZM35.009 360.129C35.6778 358.578 35.9687 356.89 35.8579 355.205C35.9684 353.532 35.6691 351.858 34.9861 350.328C34.7229 349.863 34.3411 349.476 33.8795 349.207C33.418 348.938 32.8933 348.796 32.3591 348.796C31.8248 348.796 31.3002 348.938 30.8387 349.207C30.3771 349.476 29.9953 349.863 29.7321 350.328C29.0666 351.863 28.7759 353.535 28.8841 355.205C28.7735 356.89 29.0641 358.577 29.7321 360.129C29.9979 360.594 30.3819 360.98 30.8453 361.249C31.3086 361.518 31.8349 361.66 32.3706 361.66C32.9063 361.66 33.4325 361.518 33.8959 361.249C34.3592 360.98 34.7433 360.594 35.009 360.129V360.129Z" fill="#1E88E5"/>
<path d="M439.283 155.863L438.098 155.548L463.952 58.291H613.913V59.517H464.894L439.283 155.863Z" fill="#90CAF9"/>
<path d="M626.166 71.77C623.622 71.77 621.134 71.0154 619.018 69.6017C616.903 68.1879 615.254 66.1785 614.28 63.8276C613.306 61.4766 613.051 58.8897 613.548 56.3939C614.044 53.8982 615.269 51.6057 617.069 49.8063C618.868 48.007 621.161 46.7816 623.656 46.2852C626.152 45.7887 628.739 46.0435 631.09 47.0173C633.441 47.9911 635.45 49.6402 636.864 51.756C638.278 53.8718 639.032 56.3593 639.032 58.904C639.029 62.315 637.672 65.5853 635.26 67.9973C632.848 70.4093 629.578 71.7661 626.166 71.77V71.77ZM626.166 47.2633C623.864 47.2633 621.614 47.946 619.699 49.2251C617.785 50.5042 616.293 52.3222 615.412 54.4493C614.531 56.5763 614.3 58.9169 614.749 61.175C615.199 63.433 616.307 65.5072 617.935 67.1352C619.563 68.7631 621.637 69.8718 623.895 70.321C626.153 70.7701 628.494 70.5396 630.621 69.6585C632.748 68.7775 634.566 67.2855 635.845 65.3712C637.124 63.4569 637.807 61.2063 637.807 58.904C637.804 55.8178 636.576 52.859 634.394 50.6767C632.211 48.4944 629.253 47.2668 626.166 47.2633V47.2633Z" fill="#90CAF9"/>
<path d="M626.166 63.8053C628.873 63.8053 631.068 61.6109 631.068 58.904C631.068 56.197 628.873 54.0027 626.166 54.0027C623.459 54.0027 621.265 56.197 621.265 58.904C621.265 61.6109 623.459 63.8053 626.166 63.8053Z" fill="#0D47A1"/>
<path d="M249.956 251.343L251.141 251.658L225.287 348.914H75.326V347.689H224.345L249.956 251.343Z" fill="#90CAF9"/>
<path d="M63.0726 335.436C65.6172 335.436 68.1047 336.19 70.2205 337.604C72.3363 339.018 73.9854 341.027 74.9592 343.378C75.933 345.729 76.1878 348.316 75.6913 350.812C75.1949 353.307 73.9695 355.6 72.1702 357.399C70.3709 359.199 68.0784 360.424 65.5826 360.92C63.0868 361.417 60.4999 361.162 58.149 360.188C55.798 359.214 53.7886 357.565 52.3749 355.45C50.9611 353.334 50.2066 350.846 50.2066 348.302C50.2104 344.89 51.5672 341.62 53.9792 339.208C56.3912 336.796 59.6615 335.439 63.0726 335.436V335.436ZM63.0726 359.942C65.3749 359.942 67.6255 359.259 69.5398 357.98C71.4541 356.701 72.9461 354.883 73.8271 352.756C74.7082 350.629 74.9387 348.289 74.4895 346.031C74.0404 343.772 72.9317 341.698 71.3038 340.07C69.6758 338.442 67.6016 337.334 65.3436 336.885C63.0855 336.435 60.7449 336.666 58.6179 337.547C56.4908 338.428 54.6728 339.92 53.3937 341.834C52.1146 343.749 51.4319 345.999 51.4319 348.302C51.4354 351.388 52.663 354.347 54.8452 356.529C57.0275 358.711 59.9864 359.939 63.0726 359.942V359.942Z" fill="#90CAF9"/>
<path d="M63.0726 353.203C65.7795 353.203 67.9739 351.008 67.9739 348.301C67.9739 345.595 65.7795 343.4 63.0726 343.4C60.3656 343.4 58.1712 345.595 58.1712 348.301C58.1712 351.008 60.3656 353.203 63.0726 353.203Z" fill="#0D47A1"/>
</svg>
