<svg width="672" height="191" viewBox="0 0 672 191" fill="none" xmlns="http://www.w3.org/2000/svg">
<path d="M86.7706 4.35934C91.2173 1.67799 96.7827 1.67799 101.229 4.35933L134.42 24.3733L168.246 43.6659C172.665 46.1864 175.369 50.9058 175.309 55.993L174.84 95.5L175.309 135.007C175.369 140.094 172.665 144.814 168.246 147.334L134.42 166.627L101.229 186.641C96.7827 189.322 91.2173 189.322 86.7706 186.641L53.58 166.627L19.7543 147.334C15.3351 144.814 12.631 140.094 12.6914 135.007L13.16 95.5L12.6914 55.993C12.631 50.9058 15.3351 46.1864 19.7543 43.6659L53.58 24.3733L86.7706 4.35934Z" fill="#F08A5D"/>
<path d="M74 153H44V72H74V153Z" fill="#EEEEEE"/>
<path d="M110 153H78V80H110V153Z" fill="#EEEEEE"/>
<path d="M144 153H114V38H144V153Z" fill="#EEEEEE"/>
<path d="M234.682 136H219.832V56.47H234.682V136ZM328.333 96.235C328.333 102.065 327.361 107.473 325.418 112.46C323.511 117.41 320.798 121.7 317.278 125.33C313.758 128.96 309.523 131.802 304.573 133.855C299.623 135.872 294.123 136.88 288.073 136.88C282.059 136.88 276.578 135.872 271.628 133.855C266.678 131.802 262.424 128.96 258.868 125.33C255.348 121.7 252.616 117.41 250.673 112.46C248.729 107.473 247.758 102.065 247.758 96.235C247.758 90.405 248.729 85.015 250.673 80.065C252.616 75.0783 255.348 70.77 258.868 67.14C262.424 63.51 266.678 60.6867 271.628 58.67C276.578 56.6167 282.059 55.59 288.073 55.59C292.106 55.59 295.901 56.0667 299.458 57.02C303.014 57.9367 306.278 59.2567 309.248 60.98C312.218 62.6667 314.876 64.7383 317.223 67.195C319.606 69.615 321.623 72.3283 323.273 75.335C324.923 78.3417 326.169 81.605 327.013 85.125C327.893 88.645 328.333 92.3483 328.333 96.235ZM313.208 96.235C313.208 91.8717 312.621 87.9667 311.448 84.52C310.274 81.0367 308.606 78.085 306.443 75.665C304.279 73.245 301.639 71.3933 298.523 70.11C295.443 68.8267 291.959 68.185 288.073 68.185C284.186 68.185 280.684 68.8267 277.568 70.11C274.488 71.3933 271.848 73.245 269.648 75.665C267.484 78.085 265.816 81.0367 264.643 84.52C263.469 87.9667 262.883 91.8717 262.883 96.235C262.883 100.598 263.469 104.522 264.643 108.005C265.816 111.452 267.484 114.385 269.648 116.805C271.848 119.188 274.488 121.022 277.568 122.305C280.684 123.588 284.186 124.23 288.073 124.23C291.959 124.23 295.443 123.588 298.523 122.305C301.639 121.022 304.279 119.188 306.443 116.805C308.606 114.385 310.274 111.452 311.448 108.005C312.621 104.522 313.208 100.598 313.208 96.235ZM356.176 68.24V90.295H384.006V101.68H356.176V124.175H391.486V136H341.326V56.47H391.486V68.24H356.176ZM455.38 94.31C458.167 94.31 460.587 93.9617 462.64 93.265C464.73 92.5683 466.435 91.615 467.755 90.405C469.112 89.1583 470.12 87.6917 470.78 86.005C471.44 84.3183 471.77 82.4667 471.77 80.45C471.77 76.4167 470.432 73.3183 467.755 71.155C465.115 68.9917 461.064 67.91 455.6 67.91H446.14V94.31H455.38ZM493.44 136H480.075C477.545 136 475.712 135.01 474.575 133.03L457.855 107.565C457.232 106.612 456.535 105.933 455.765 105.53C455.032 105.127 453.932 104.925 452.465 104.925H446.14V136H431.345V56.47H455.6C460.99 56.47 465.61 57.0383 469.46 58.175C473.347 59.275 476.519 60.8333 478.975 62.85C481.469 64.8667 483.302 67.2867 484.475 70.11C485.649 72.8967 486.235 75.9767 486.235 79.35C486.235 82.0267 485.832 84.5567 485.025 86.94C484.255 89.3233 483.119 91.4867 481.615 93.43C480.149 95.3733 478.315 97.0783 476.115 98.545C473.952 100.012 471.477 101.167 468.69 102.01C469.644 102.56 470.524 103.22 471.33 103.99C472.137 104.723 472.87 105.603 473.53 106.63L493.44 136ZM528.834 111.91C524.911 112.093 521.611 112.442 518.934 112.955C516.258 113.432 514.113 114.055 512.499 114.825C510.886 115.595 509.731 116.493 509.034 117.52C508.338 118.547 507.989 119.665 507.989 120.875C507.989 123.258 508.686 124.963 510.079 125.99C511.509 127.017 513.361 127.53 515.634 127.53C518.421 127.53 520.823 127.035 522.839 126.045C524.893 125.018 526.891 123.478 528.834 121.425V111.91ZM497.704 87.435C504.194 81.495 512.004 78.525 521.134 78.525C524.434 78.525 527.386 79.075 529.989 80.175C532.593 81.2383 534.793 82.7417 536.589 84.685C538.386 86.5917 539.743 88.8833 540.659 91.56C541.613 94.2367 542.089 97.17 542.089 100.36V136H535.929C534.646 136 533.656 135.817 532.959 135.45C532.263 135.047 531.713 134.258 531.309 133.085L530.099 129.015C528.669 130.298 527.276 131.435 525.919 132.425C524.563 133.378 523.151 134.185 521.684 134.845C520.218 135.505 518.641 136 516.954 136.33C515.304 136.697 513.471 136.88 511.454 136.88C509.071 136.88 506.871 136.568 504.854 135.945C502.838 135.285 501.096 134.313 499.629 133.03C498.163 131.747 497.026 130.152 496.219 128.245C495.413 126.338 495.009 124.12 495.009 121.59C495.009 120.16 495.248 118.748 495.724 117.355C496.201 115.925 496.971 114.568 498.034 113.285C499.134 112.002 500.546 110.792 502.269 109.655C503.993 108.518 506.101 107.528 508.594 106.685C511.124 105.842 514.058 105.163 517.394 104.65C520.731 104.1 524.544 103.77 528.834 103.66V100.36C528.834 96.5833 528.028 93.7967 526.414 92C524.801 90.1667 522.473 89.25 519.429 89.25C517.229 89.25 515.396 89.5067 513.929 90.02C512.499 90.5333 511.234 91.12 510.134 91.78C509.034 92.4033 508.026 92.9717 507.109 93.485C506.229 93.9983 505.239 94.255 504.139 94.255C503.186 94.255 502.379 94.0167 501.719 93.54C501.059 93.0267 500.528 92.44 500.124 91.78L497.704 87.435ZM567.589 86.5C568.725 85.3633 569.917 84.3183 571.164 83.365C572.447 82.375 573.785 81.55 575.179 80.89C576.609 80.1933 578.13 79.6617 579.744 79.295C581.357 78.8917 583.117 78.69 585.024 78.69C588.104 78.69 590.835 79.2217 593.219 80.285C595.602 81.3117 597.582 82.7783 599.159 84.685C600.772 86.555 601.982 88.81 602.789 91.45C603.632 94.0533 604.054 96.9317 604.054 100.085V136H590.469V100.085C590.469 96.6383 589.68 93.98 588.104 92.11C586.527 90.2033 584.125 89.25 580.899 89.25C578.552 89.25 576.352 89.7817 574.299 90.845C572.245 91.9083 570.302 93.3567 568.469 95.19V136H554.884V79.57H563.189C564.949 79.57 566.104 80.395 566.654 82.045L567.589 86.5ZM630.559 54.27V101.075H633.089C634.005 101.075 634.72 100.965 635.234 100.745C635.784 100.488 636.334 99.9933 636.884 99.26L650.909 81.935C651.495 81.165 652.137 80.5783 652.834 80.175C653.567 79.7717 654.502 79.57 655.639 79.57H668.069L650.524 100.525C649.277 102.175 647.92 103.44 646.454 104.32C647.224 104.87 647.902 105.512 648.489 106.245C649.112 106.978 649.699 107.767 650.249 108.61L669.059 136H656.794C655.73 136 654.814 135.835 654.044 135.505C653.274 135.138 652.632 134.497 652.119 133.58L637.709 112.185C637.195 111.342 636.664 110.792 636.114 110.535C635.564 110.278 634.739 110.15 633.639 110.15H630.559V136H616.974V54.27H630.559Z" fill="white"/>
</svg>
