<?xml version="1.0" encoding="iso-8859-1"?>
<!-- Generator: Adobe Illustrator 19.0.0, SVG Export Plug-In . SVG Version: 6.00 Build 0)  -->
<svg version="1.1" id="Layer_1" xmlns="http://www.w3.org/2000/svg" xmlns:xlink="http://www.w3.org/1999/xlink" x="0px" y="0px"
	 viewBox="0 0 512 512" style="enable-background:new 0 0 512 512;" xml:space="preserve">
<rect x="357.275" y="120.967" style="fill:#894BA2;" width="74.673" height="382.593"/>
<rect x="398.19" y="120.967" style="fill:#763794;" width="33.758" height="382.593"/>
<rect x="221.218" y="204.879" style="fill:#F77935;" width="74.673" height="298.682"/>
<rect x="262.133" y="204.879" style="fill:#D9510D;" width="33.758" height="298.682"/>
<rect x="85.161" y="298.198" style="fill:#FFDB56;" width="74.673" height="205.363"/>
<rect x="126.087" y="298.198" style="fill:#FBA806;" width="33.758" height="205.363"/>
<path d="M9.002,110.422c4.661,0,8.44-3.778,8.44-8.44V8.44c0-4.662-3.779-8.44-8.44-8.44s-8.44,3.778-8.44,8.44v93.543
	C0.563,106.643,4.341,110.422,9.002,110.422z"/>
<path d="M502.998,495.121h-62.606V120.967c0-4.662-3.779-8.44-8.44-8.44h-74.678c-4.661,0-8.44,3.778-8.44,8.44v95.648
	c0,4.662,3.779,8.44,8.44,8.44s8.44-3.778,8.44-8.44v-87.209h57.799v365.714h-57.799V250.374c0-4.662-3.779-8.44-8.44-8.44
	s-8.44,3.778-8.44,8.44v244.747h-44.499v-290.24c0-4.662-3.779-8.44-8.44-8.44h-74.678c-4.661,0-8.44,3.778-8.44,8.44v290.24H168.28
	V298.192c0-4.662-3.779-8.44-8.44-8.44H85.163c-4.661,0-8.44,3.778-8.44,8.44v109.72c0,4.662,3.779,8.44,8.44,8.44
	c4.661,0,8.44-3.778,8.44-8.44v-101.28h57.799v188.489H93.603V441.67c0-4.662-3.779-8.44-8.44-8.44c-4.661,0-8.44,3.778-8.44,8.44
	v53.451H17.442v-359.38c0-4.662-3.779-8.44-8.44-8.44s-8.44,3.778-8.44,8.44v367.82c0,4.662,3.779,8.44,8.44,8.44h76.161h74.678
	h61.378h74.678h61.378h74.678h71.045c4.661,0,8.44-3.778,8.44-8.44S507.659,495.121,502.998,495.121z M229.658,495.121v-281.8
	h57.799v281.8H229.658z"/>
<g>
</g>
<g>
</g>
<g>
</g>
<g>
</g>
<g>
</g>
<g>
</g>
<g>
</g>
<g>
</g>
<g>
</g>
<g>
</g>
<g>
</g>
<g>
</g>
<g>
</g>
<g>
</g>
<g>
</g>
</svg>
