<svg width="451" height="83" viewBox="0 0 451 83" fill="none" xmlns="http://www.w3.org/2000/svg">
<path d="M15.6816 82H0.831563V2.46999H15.6816V82ZM109.333 42.235C109.333 48.065 108.361 53.4733 106.418 58.46C104.511 63.41 101.798 67.7 98.2778 71.33C94.7578 74.96 90.5228 77.8017 85.5728 79.855C80.6228 81.8717 75.1228 82.88 69.0728 82.88C63.0595 82.88 57.5778 81.8717 52.6278 79.855C47.6778 77.8017 43.4245 74.96 39.8678 71.33C36.3478 67.7 33.6161 63.41 31.6728 58.46C29.7295 53.4733 28.7578 48.065 28.7578 42.235C28.7578 36.405 29.7295 31.015 31.6728 26.065C33.6161 21.0783 36.3478 16.77 39.8678 13.14C43.4245 9.51 47.6778 6.68666 52.6278 4.67C57.5778 2.61667 63.0595 1.59 69.0728 1.59C73.1061 1.59 76.9011 2.06666 80.4578 3.01999C84.0145 3.93666 87.2778 5.25666 90.2478 6.98C93.2178 8.66666 95.8761 10.7383 98.2228 13.195C100.606 15.615 102.623 18.3283 104.273 21.335C105.923 24.3417 107.169 27.605 108.013 31.125C108.893 34.645 109.333 38.3483 109.333 42.235ZM94.2078 42.235C94.2078 37.8717 93.6212 33.9667 92.4478 30.52C91.2745 27.0367 89.6062 24.085 87.4428 21.665C85.2795 19.245 82.6395 17.3933 79.5228 16.11C76.4428 14.8267 72.9595 14.185 69.0728 14.185C65.1861 14.185 61.6845 14.8267 58.5678 16.11C55.4878 17.3933 52.8478 19.245 50.6478 21.665C48.4845 24.085 46.8161 27.0367 45.6428 30.52C44.4695 33.9667 43.8828 37.8717 43.8828 42.235C43.8828 46.5983 44.4695 50.5217 45.6428 54.005C46.8161 57.4517 48.4845 60.385 50.6478 62.805C52.8478 65.1883 55.4878 67.0217 58.5678 68.305C61.6845 69.5883 65.1861 70.23 69.0728 70.23C72.9595 70.23 76.4428 69.5883 79.5228 68.305C82.6395 67.0217 85.2795 65.1883 87.4428 62.805C89.6062 60.385 91.2745 57.4517 92.4478 54.005C93.6212 50.5217 94.2078 46.5983 94.2078 42.235ZM137.176 14.24V36.295H165.006V47.68H137.176V70.175H172.486V82H122.326V2.46999H172.486V14.24H137.176ZM236.38 40.31C239.167 40.31 241.587 39.9617 243.64 39.265C245.73 38.5683 247.435 37.615 248.755 36.405C250.112 35.1583 251.12 33.6917 251.78 32.005C252.44 30.3183 252.77 28.4667 252.77 26.45C252.77 22.4167 251.432 19.3183 248.755 17.155C246.115 14.9917 242.064 13.91 236.6 13.91H227.14V40.31H236.38ZM274.44 82H261.075C258.545 82 256.712 81.01 255.575 79.03L238.855 53.565C238.232 52.6117 237.535 51.9333 236.765 51.53C236.032 51.1267 234.932 50.925 233.465 50.925H227.14V82H212.345V2.46999H236.6C241.99 2.46999 246.61 3.03833 250.46 4.175C254.347 5.27499 257.519 6.83333 259.975 8.85C262.469 10.8667 264.302 13.2867 265.475 16.11C266.649 18.8967 267.235 21.9767 267.235 25.35C267.235 28.0267 266.832 30.5567 266.025 32.94C265.255 35.3233 264.119 37.4867 262.615 39.43C261.149 41.3733 259.315 43.0783 257.115 44.545C254.952 46.0117 252.477 47.1667 249.69 48.01C250.644 48.56 251.524 49.22 252.33 49.99C253.137 50.7233 253.87 51.6033 254.53 52.63L274.44 82ZM309.834 57.91C305.911 58.0933 302.611 58.4417 299.934 58.955C297.258 59.4317 295.113 60.055 293.499 60.825C291.886 61.595 290.731 62.4933 290.034 63.52C289.338 64.5467 288.989 65.665 288.989 66.875C288.989 69.2583 289.686 70.9633 291.079 71.99C292.509 73.0167 294.361 73.53 296.634 73.53C299.421 73.53 301.823 73.035 303.839 72.045C305.893 71.0183 307.891 69.4783 309.834 67.425V57.91ZM278.704 33.435C285.194 27.495 293.004 24.525 302.134 24.525C305.434 24.525 308.386 25.075 310.989 26.175C313.593 27.2383 315.793 28.7417 317.589 30.685C319.386 32.5917 320.743 34.8833 321.659 37.56C322.613 40.2367 323.089 43.17 323.089 46.36V82H316.929C315.646 82 314.656 81.8167 313.959 81.45C313.263 81.0467 312.713 80.2583 312.309 79.085L311.099 75.015C309.669 76.2983 308.276 77.435 306.919 78.425C305.563 79.3783 304.151 80.185 302.684 80.845C301.218 81.505 299.641 82 297.954 82.33C296.304 82.6967 294.471 82.88 292.454 82.88C290.071 82.88 287.871 82.5683 285.854 81.945C283.838 81.285 282.096 80.3133 280.629 79.03C279.163 77.7467 278.026 76.1517 277.219 74.245C276.413 72.3383 276.009 70.12 276.009 67.59C276.009 66.16 276.248 64.7483 276.724 63.355C277.201 61.925 277.971 60.5683 279.034 59.285C280.134 58.0017 281.546 56.7917 283.269 55.655C284.993 54.5183 287.101 53.5283 289.594 52.685C292.124 51.8417 295.058 51.1633 298.394 50.65C301.731 50.1 305.544 49.77 309.834 49.66V46.36C309.834 42.5833 309.028 39.7967 307.414 38C305.801 36.1667 303.473 35.25 300.429 35.25C298.229 35.25 296.396 35.5067 294.929 36.02C293.499 36.5333 292.234 37.12 291.134 37.78C290.034 38.4033 289.026 38.9717 288.109 39.485C287.229 39.9983 286.239 40.255 285.139 40.255C284.186 40.255 283.379 40.0167 282.719 39.54C282.059 39.0267 281.528 38.44 281.124 37.78L278.704 33.435ZM348.589 32.5C349.725 31.3633 350.917 30.3183 352.164 29.365C353.447 28.375 354.785 27.55 356.179 26.89C357.609 26.1933 359.13 25.6617 360.744 25.295C362.357 24.8917 364.117 24.69 366.024 24.69C369.104 24.69 371.835 25.2217 374.219 26.285C376.602 27.3117 378.582 28.7783 380.159 30.685C381.772 32.555 382.982 34.81 383.789 37.45C384.632 40.0533 385.054 42.9317 385.054 46.085V82H371.469V46.085C371.469 42.6383 370.68 39.98 369.104 38.11C367.527 36.2033 365.125 35.25 361.899 35.25C359.552 35.25 357.352 35.7817 355.299 36.845C353.245 37.9083 351.302 39.3567 349.469 41.19V82H335.884V25.57H344.189C345.949 25.57 347.104 26.395 347.654 28.045L348.589 32.5ZM411.559 0.269997V47.075H414.089C415.005 47.075 415.72 46.965 416.234 46.745C416.784 46.4883 417.334 45.9933 417.884 45.26L431.909 27.935C432.495 27.165 433.137 26.5783 433.834 26.175C434.567 25.7717 435.502 25.57 436.639 25.57H449.069L431.524 46.525C430.277 48.175 428.92 49.44 427.454 50.32C428.224 50.87 428.902 51.5117 429.489 52.245C430.112 52.9783 430.699 53.7667 431.249 54.61L450.059 82H437.794C436.73 82 435.814 81.835 435.044 81.505C434.274 81.1383 433.632 80.4967 433.119 79.58L418.709 58.185C418.195 57.3417 417.664 56.7917 417.114 56.535C416.564 56.2783 415.739 56.15 414.639 56.15H411.559V82H397.974V0.269997H411.559Z" fill="white"/>
</svg>
